<svg width="1024" height="1024" fill="none" xmlns="http://www.w3.org/2000/svg"><path fill="#000" d="M0 0h1024v1024H0z"/><path d="M995 847.628c0 15.349-4.179 42.791-12.538 82.325-8.358 39.07-15.933 64.419-22.724 76.047-8.358-1.86-19.328-5.58-32.911-11.163H564.023C552.008 980.884 546 966.233 546 950.884c17.761 0 30.821-2.791 39.18-8.372 8.358-5.582 12.537-14.884 12.537-27.907v-327.21c0-12.558-4.179-21.628-12.537-27.209-7.836-5.581-20.635-8.372-38.396-8.372 0-15.349 6.007-30 18.022-43.954h304.035c8.881-3.72 19.068-6.511 30.56-8.372 12.015-2.325 22.986-3.488 32.911-3.488 7.836 13.488 16.195 32.093 25.075 55.814 9.404 23.721 14.105 40.93 14.105 51.628-6.269 5.116-16.978 10.465-32.127 16.046-15.15 5.582-28.21 9.303-39.18 11.163-6.791-17.209-17.5-32.093-32.127-44.651-14.628-12.558-31.605-18.837-50.934-18.837h-88.546v147.209h56.419c33.955 0 50.933-16.977 50.933-50.93 23.508 0 44.665 4.884 63.471 14.651V807.86c-8.358 4.652-18.022 8.373-28.993 11.163-10.97 2.326-22.202 3.489-33.694 3.489 0-17.675-4.702-30.931-14.105-39.768s-21.679-13.256-36.829-13.256h-57.202v163.954h94.815c21.94 0 41.008-8.14 57.202-24.419 16.194-16.744 26.381-37.209 30.56-61.395H995ZM223.637 481c-12.142 0-26.923-.65-44.344-1.951-56.487-3.47-106.11-5.204-148.872-5.204C18.807 461.702 13 447.825 13 432.214c17.421 0 29.827-2.386 37.218-7.156 7.919-5.204 11.878-13.877 11.878-26.019V93.311c0-11.71-3.96-19.949-11.878-24.719-7.39-5.204-19.797-7.806-37.218-7.806 0-16.479 5.807-30.139 17.421-40.98 40.122 0 76.284-.867 108.486-2.602 32.203-1.735 51.208-2.819 57.015-3.253 17.949-1.3 30.883-1.951 38.802-1.951 58.598 0 107.694 9.974 147.287 29.922 40.122 19.949 69.685 47.052 88.69 81.311C490.234 157.058 500 195.003 500 237.068c0 46.401-10.03 88.032-30.091 124.893-19.533 36.427-49.888 65.482-91.065 87.165C337.667 470.375 285.931 481 223.637 481Zm-6.335-53.99c45.401 0 80.243-14.094 104.527-42.282 24.812-28.621 37.218-74.589 37.218-137.903 0-61.145-13.198-106.896-39.593-137.252-25.868-30.356-62.03-45.534-108.487-45.534-8.974 0-15.309.433-19.004 1.3v360.37c5.279.867 13.725 1.301 25.339 1.301ZM744.61 480.943c-11.968 0-26.537-.65-43.708-1.951-55.674-3.469-104.585-5.203-146.731-5.203C542.724 461.648 537 447.772 537 432.163c17.171 0 29.398-2.385 36.683-7.155 7.805-5.203 11.707-13.875 11.707-26.016V93.301c0-11.707-3.902-19.946-11.707-24.716-7.285-5.203-19.512-7.804-36.683-7.804 0-16.477 5.724-30.136 17.171-40.976 39.544 0 75.187-.867 106.927-2.602 31.739-1.734 50.471-2.818 56.195-3.252 17.691-1.3 30.439-1.951 38.244-1.951 57.756 0 106.146 9.973 145.17 29.919 39.545 19.946 68.683 47.046 87.415 81.3C1007.37 157.041 1017 194.981 1017 237.041c0 46.395-9.89 88.021-29.659 124.878-19.252 36.422-49.17 65.474-89.756 87.154-40.585 21.247-91.577 31.87-152.975 31.87Zm-6.244-53.984c44.748 0 79.089-14.092 103.024-42.276 24.456-28.618 36.683-74.58 36.683-137.886 0-61.138-13.008-106.884-39.024-137.236-25.496-30.352-61.138-45.529-106.927-45.529-8.846 0-15.09.434-18.732 1.301V425.66c5.203.867 13.529 1.3 24.976 1.3ZM486.991 508c4.148 5.57 7.353 12.301 9.615 20.192 2.263 7.891 3.394 15.782 3.394 23.673-12.821 0-22.436 2.785-28.847 8.356-6.033 5.57-9.05 14.621-9.05 27.154v327.25c0 12.997 2.829 22.048 8.485 27.154 6.033 5.106 15.837 7.659 29.412 7.659 0 8.356-1.131 16.479-3.394 24.37-2.262 7.891-5.467 14.622-9.615 20.192H346.717c-3.771-5.57-6.788-12.301-9.05-20.192-2.263-7.891-3.394-16.014-3.394-24.37 13.198 0 23.002-2.553 29.412-7.659 6.411-5.57 9.616-14.621 9.616-27.154V626.367l-96.156 298.702c-4.902 14.389-11.689 24.369-20.362 29.94-8.673 5.106-19.985 7.659-33.937 7.659L110.853 626.367v288.258c0 12.533 3.582 21.584 10.746 27.154 7.542 5.106 18.854 7.659 33.938 7.659 0 8.356-1.132 16.479-3.394 24.37-2.263 7.891-5.279 14.622-9.05 20.192H25.443c-3.77-5.57-6.787-12.301-9.05-20.192-2.262-7.891-3.393-16.014-3.393-24.37 13.952 0 24.133-2.553 30.544-7.659 6.41-5.57 9.615-14.621 9.615-27.154v-327.25c0-12.533-3.394-21.584-10.181-27.154-6.788-5.571-16.78-8.356-29.978-8.356 0-7.891 1.131-15.782 3.394-23.673 2.262-7.891 5.467-14.622 9.615-20.192h88.803c17.723 0 31.863 3.249 42.421 9.748 10.559 6.034 19.043 18.335 25.453 36.902l59.956 181.728 22.625 86.338 21.494-86.338L358.029 508h128.962Z" fill="#991B1B" stroke="#fff" stroke-width="6"/><g filter="url(#a)"><path d="M372.21 326.052c-1.853-13.715-.368-27.647 4.342-40.74 4.709-13.093 12.519-25.002 22.838-34.824 11.976-11.402 26.535-20.098 42.585-25.436 16.05-5.338 33.173-7.18 50.085-5.386 67.247 3.425 99.465 46.841 99.465 93.682-1.825 26.901-11.966 52.71-29.172 74.238l-2.929-2.872c-3.28-3.094-7.146-6.297-11.715-9.722-11.916-9.425-22.612-20.141-31.866-31.927 18.393-31.596 7.849-76.337-31.047-76.337a45.021 45.021 0 0 0-16.939 4.332c-5.271 2.528-9.932 6.053-13.692 10.356-3.76 4.302-6.539 9.29-8.163 14.651a38.325 38.325 0 0 0-1.273 16.507c-6.134 14.627-8.581 30.397-7.146 46.068-10.738-5.326-19.458-13.664-24.955-23.863l-14.293-32.258-11.715 33.142a54.623 54.623 0 0 0-1.992 25.409c-7.208-10.555-11.553-22.619-12.653-35.13l.235.11ZM328.042 442.16c19.213-18.118 58.578-29.386 61.038-39.218 2.46-9.832-17.69-26.183-25.306-29.276a126.169 126.169 0 0 1 41.825 3.867c-3.707-5.59-6.114-11.858-7.064-18.39a44.066 44.066 0 0 1 1.558-19.503c15.23 34.468 69.59 39.992 83.063 68.494-2.104-7.203-5.718-13.934-10.627-19.798-4.91-5.863-11.017-10.738-17.959-14.338-7.732-18.781-1.992-53.249 7.498-62.86-3.397 49.713 71.817 78.105 87.398 114.119-9.255-30.932-44.167-50.486-60.804-68.935a47.367 47.367 0 0 1-2.158-20.573c.807-6.924 3.139-13.614 6.845-19.64-1.758 33.142 36.318 59.214 56.586 77.332 24.017 22.095 30.812 41.207 27.531 57.004 3.497.593 6.633 2.393 8.799 5.048 2.166 2.655 3.206 5.975 2.917 9.314a30.046 30.046 0 0 0 10.32-5.819c2.982-2.584 5.371-5.717 7.019-9.205 1.63 11.336-.219 22.874-5.326 33.251-5.108 10.376-13.261 19.156-23.494 25.3a21.846 21.846 0 0 0 1.038-10.814c-.571-3.632-2.051-7.082-4.319-10.066-7.732-8.838-29.757-8.948-37.138-8.396 0 0 9.021-12.815 5.506-19.222-4.569-8.065-47.565-4.53-66.896 2.099a89.424 89.424 0 0 1 27.532 3.093c-3.046 4.198-10.895 22.095-5.272 27.508 5.624 5.413 11.716-3.646 11.716-3.646s-6.678 19.554-1.875 24.083c4.804 4.53 15.113 1.326 15.113 1.326-6.443 15.356-31.398 25.851-48.971 25.851 8.34-3.833 14.829-10.505 18.159-18.67a51.446 51.446 0 0 1-21.088 2.872c5.236-3.429 9.299-8.223 11.692-13.795a29.3 29.3 0 0 0 1.781-17.579c-5.272-22.095-38.544-25.409-55.297-14.472 6.276-15.143 18.601-27.36 34.326-34.026a175.675 175.675 0 0 0-25.423-6.076c15.307-8.921 32.97-13.592 50.963-13.478-20.853-5.082-58.578 1.215-76.385 20.659 8.602.593 17.119 2 25.422 4.198-24.735 6.392-47.425 18.418-66.075 35.02 2.46-13.036 6.326-24.084 3.163-31.927-4.686-11.048-18.979-15.687-46.862-10.164l-.469-.552Zm217.09 2.983c-2.1-5.477-5.426-10.463-9.753-14.619-4.326-4.156-9.551-7.384-15.319-9.465 3.866 12.594 8.904 24.084 25.072 24.084Zm293.709 174.99c0-36.456-37.49-64.738-80.252-60.982 7.806 1.552 14.86 5.469 20.085 11.153 5.225 5.685 8.334 12.826 8.853 20.332 0 28.503-37.724 37.341-58.578 33.143 22.142-14.472 19.213-56.121-7.381-70.925 9.021 23.31-18.042 46.51-44.285 26.183-14.644-11.048-48.385-37.893-63.498-49.382-15.113-11.489-32.804-4.75-39.716-9.722-6.912-4.971-2.812-22.094-13.707-27.618-9.021-4.971-18.042-2.21-28.586-5.524-4.627-.945-8.737-3.431-11.577-7.003-2.84-3.571-4.221-7.987-3.888-12.44-2.289 4.211-3.231 8.96-2.711 13.667.52 4.707 2.479 9.17 5.64 12.847 7.264 7.843 19.214 12.704 24.251 21.321 6.444 11.047-4.452 26.735 24.134 47.946 13.708 10.053 35.147 26.624 48.737 38.113 23.431 19.333 10.896 43.306 13.942 64.296 1.502 9.67 5.925 18.729 12.739 26.095 6.813 7.365 15.731 12.726 25.688 15.443-7.018-7.047-10.925-16.35-10.925-26.017 0-9.667 3.907-18.97 10.925-26.016.985 14.082 6.538 27.538 15.905 38.545 9.368 11.007 22.097 19.032 36.463 22.989 37.959 9.5 78.378-11.048 86.813-25.078a63.498 63.498 0 0 1-28.249.607c-9.333-1.921-18.044-5.917-25.409-11.654 44.52 5.965 84.001-23.31 84.001-60.65l.586.331Zm-231.617-9.832c-11.716-9.832-29.64-23.752-42.996-33.805-15.23 24.525-47.682 56.562-80.486 56.562-60.452 0-90.796-80.645-23.431-146.709a33.169 33.169 0 0 0-9.138-1.325c-5.367-.127-10.657 1.216-15.231 3.866l-25.657 17.676 6.092-31.927a38.96 38.96 0 0 1 2.109-5.524c-13.279 5.995-25.491 13.896-36.201 23.421l-26.243 27.066 2.812-38.114 1.757-8.506a47.873 47.873 0 0 0 2.109-16.461 4.767 4.767 0 0 0-1.992-1.988c-12.418 9.059-46.862 37.671-50.728 79.762 3.021-4.431 7.017-8.198 11.716-11.047 3.866-1.326 7.146 0 3.514 11.047-1.406 4.087-34.444 88.379 30.578 146.819 0 0-7.147-17.123-2.812-22.094 2.109-2.541 4.804-2.762 8.552 1.767 3.749 4.53 5.741 6.85 8.904 10.164a138.03 138.03 0 0 0 18.745 16.129c22.217 14.829 48.699 22.922 75.917 23.2 80.486 0 123.014-52.365 146.679-96.223-1.054-1.105-2.226-2.32-3.515-3.425l-1.054-.331Zm139.064-182.613c-59.867 2.762-111.532 50.818-137.892 84.733a46.611 46.611 0 0 1 14.293 7.07l22.493 17.345c12.289-25.861 28.381-49.96 47.8-71.587 9.924-10.879 23.656-18.043 38.702-20.191 15.047-2.149 30.412.86 43.307 8.481 13.239-11.048 58.578-22.095 82.009-15.356-20.614-21.052-49.094-33.727-79.432-35.352-28.234 0-44.167 13.036-48.268 7.181-4.1-5.855 19.097-18.228 19.097-18.228-33.273 1.326-57.524 38.334-67.599 33.142-5.975-2.762 9.021-20.548 9.021-20.548-28.907 17.028-50.584 43.057-61.273 73.575 28.001-32.368 82.009-55.237 117.742-50.707v.442Zm10.075 143.174c4.822 1.084 9.155 3.583 12.376 7.136s5.164 7.978 5.549 12.638a16.486 16.486 0 0 1-2.544 8.795c-1.67 2.663-4.069 4.853-6.946 6.34a39.865 39.865 0 0 1-9.723 3.977 58.464 58.464 0 0 0 2.577-19.112c0-12.041-1.289-18.67-1.289-18.67" fill="#fff"/><path d="M756.363 570.862c4.822 1.084 9.155 3.583 12.376 7.136s5.164 7.978 5.549 12.638a16.486 16.486 0 0 1-2.544 8.795c-1.67 2.663-4.069 4.853-6.946 6.34a39.865 39.865 0 0 1-9.723 3.977 58.464 58.464 0 0 0 2.577-19.112c0-12.041-1.289-18.67-1.289-18.67M372.21 326.052c-1.853-13.715-.368-27.647 4.342-40.74 4.709-13.093 12.519-25.002 22.838-34.824 11.976-11.402 26.535-20.098 42.585-25.436 16.05-5.338 33.173-7.18 50.085-5.386 67.247 3.425 99.465 46.841 99.465 93.682-1.825 26.901-11.966 52.71-29.172 74.238l-2.929-2.872c-3.28-3.094-7.146-6.297-11.715-9.722-11.916-9.425-22.612-20.141-31.866-31.927 18.393-31.596 7.849-76.337-31.047-76.337a45.021 45.021 0 0 0-16.939 4.332c-5.271 2.528-9.932 6.053-13.692 10.356-3.76 4.302-6.539 9.29-8.163 14.651a38.325 38.325 0 0 0-1.273 16.507c-6.134 14.627-8.581 30.397-7.146 46.068-10.738-5.326-19.458-13.664-24.955-23.863l-14.293-32.258-11.715 33.142a54.623 54.623 0 0 0-1.992 25.409c-7.208-10.555-11.553-22.619-12.653-35.13l.235.11ZM328.042 442.16c19.213-18.118 58.578-29.386 61.038-39.218 2.46-9.832-17.69-26.183-25.306-29.276a126.169 126.169 0 0 1 41.825 3.867c-3.707-5.59-6.114-11.858-7.064-18.39a44.066 44.066 0 0 1 1.558-19.503c15.23 34.468 69.59 39.992 83.063 68.494-2.104-7.203-5.718-13.934-10.627-19.798-4.91-5.863-11.017-10.738-17.959-14.338-7.732-18.781-1.992-53.249 7.498-62.86-3.397 49.713 71.817 78.105 87.398 114.119-9.255-30.932-44.167-50.486-60.804-68.935a47.367 47.367 0 0 1-2.158-20.573c.807-6.924 3.139-13.614 6.845-19.64-1.758 33.142 36.318 59.214 56.586 77.332 24.017 22.095 30.812 41.207 27.531 57.004 3.497.593 6.633 2.393 8.799 5.048 2.166 2.655 3.206 5.975 2.917 9.314a30.046 30.046 0 0 0 10.32-5.819c2.982-2.584 5.371-5.717 7.019-9.205 1.63 11.336-.219 22.874-5.326 33.251-5.108 10.376-13.261 19.156-23.494 25.3a21.846 21.846 0 0 0 1.038-10.814c-.571-3.632-2.051-7.082-4.319-10.066-7.732-8.838-29.757-8.948-37.138-8.396 0 0 9.021-12.815 5.506-19.222-4.569-8.065-47.565-4.53-66.896 2.099a89.424 89.424 0 0 1 27.532 3.093c-3.046 4.198-10.895 22.095-5.272 27.508 5.624 5.413 11.716-3.646 11.716-3.646s-6.678 19.554-1.875 24.083c4.804 4.53 15.113 1.326 15.113 1.326-6.443 15.356-31.398 25.851-48.971 25.851 8.34-3.833 14.829-10.505 18.159-18.67a51.446 51.446 0 0 1-21.088 2.872c5.236-3.429 9.299-8.223 11.692-13.795a29.3 29.3 0 0 0 1.781-17.579c-5.272-22.095-38.544-25.409-55.297-14.472 6.276-15.143 18.601-27.36 34.326-34.026a175.675 175.675 0 0 0-25.423-6.076c15.307-8.921 32.97-13.592 50.963-13.478-20.853-5.082-58.578 1.215-76.385 20.659 8.602.593 17.119 2 25.422 4.198-24.735 6.392-47.425 18.418-66.075 35.02 2.46-13.036 6.326-24.084 3.163-31.927-4.686-11.048-18.979-15.687-46.862-10.164l-.469-.552Zm217.09 2.983c-2.1-5.477-5.426-10.463-9.753-14.619-4.326-4.156-9.551-7.384-15.319-9.465 3.866 12.594 8.904 24.084 25.072 24.084Zm293.709 174.99c0-36.456-37.49-64.738-80.252-60.982 7.806 1.552 14.86 5.469 20.085 11.153 5.225 5.685 8.334 12.826 8.853 20.332 0 28.503-37.724 37.341-58.578 33.143 22.142-14.472 19.213-56.121-7.381-70.925 9.021 23.31-18.042 46.51-44.285 26.183-14.644-11.048-48.385-37.893-63.498-49.382-15.113-11.489-32.804-4.75-39.716-9.722-6.912-4.971-2.812-22.094-13.707-27.618-9.021-4.971-18.042-2.21-28.586-5.524-4.627-.945-8.737-3.431-11.577-7.003-2.84-3.571-4.221-7.987-3.888-12.44-2.289 4.211-3.231 8.96-2.711 13.667.52 4.707 2.479 9.17 5.64 12.847 7.264 7.843 19.214 12.704 24.251 21.321 6.444 11.047-4.452 26.735 24.134 47.946 13.708 10.053 35.147 26.624 48.737 38.113 23.431 19.333 10.896 43.306 13.942 64.296 1.502 9.67 5.925 18.729 12.739 26.095 6.813 7.365 15.731 12.726 25.688 15.443-7.018-7.047-10.925-16.35-10.925-26.017 0-9.667 3.907-18.97 10.925-26.016.985 14.082 6.538 27.538 15.905 38.545 9.368 11.007 22.097 19.032 36.463 22.989 37.959 9.5 78.378-11.048 86.813-25.078a63.498 63.498 0 0 1-28.249.607c-9.333-1.921-18.044-5.917-25.409-11.654 44.52 5.965 84.001-23.31 84.001-60.65l.586.331Zm-231.617-9.832c-11.716-9.832-29.64-23.752-42.996-33.805-15.23 24.525-47.682 56.562-80.486 56.562-60.452 0-90.796-80.645-23.431-146.709a33.169 33.169 0 0 0-9.138-1.325c-5.367-.127-10.657 1.216-15.231 3.866l-25.657 17.676 6.092-31.927a38.96 38.96 0 0 1 2.109-5.524c-13.279 5.995-25.491 13.896-36.201 23.421l-26.243 27.066 2.812-38.114 1.757-8.506a47.873 47.873 0 0 0 2.109-16.461 4.767 4.767 0 0 0-1.992-1.988c-12.418 9.059-46.862 37.671-50.728 79.762 3.021-4.431 7.017-8.198 11.716-11.047 3.866-1.326 7.146 0 3.514 11.047-1.406 4.087-34.444 88.379 30.578 146.819 0 0-7.147-17.123-2.812-22.094 2.109-2.541 4.804-2.762 8.552 1.767 3.749 4.53 5.741 6.85 8.904 10.164a138.03 138.03 0 0 0 18.745 16.129c22.217 14.829 48.699 22.922 75.917 23.2 80.486 0 123.014-52.365 146.679-96.223-1.054-1.105-2.226-2.32-3.515-3.425l-1.054-.331Zm139.064-182.613c-59.867 2.762-111.532 50.818-137.892 84.733a46.611 46.611 0 0 1 14.293 7.07l22.493 17.345c12.289-25.861 28.381-49.96 47.8-71.587 9.924-10.879 23.656-18.043 38.702-20.191 15.047-2.149 30.412.86 43.307 8.481 13.239-11.048 58.578-22.095 82.009-15.356-20.614-21.052-49.094-33.727-79.432-35.352-28.234 0-44.167 13.036-48.268 7.181-4.1-5.855 19.097-18.228 19.097-18.228-33.273 1.326-57.524 38.334-67.599 33.142-5.975-2.762 9.021-20.548 9.021-20.548-28.907 17.028-50.584 43.057-61.273 73.575 28.001-32.368 82.009-55.237 117.742-50.707v.442Z" stroke="#000" stroke-width="6"/></g><defs><filter id="a" x="301.953" y="216" width="569.147" height="514" filterUnits="userSpaceOnUse" color-interpolation-filters="sRGB"><feFlood flood-opacity="0" result="BackgroundImageFix"/><feColorMatrix in="SourceAlpha" values="0 0 0 0 0 0 0 0 0 0 0 0 0 0 0 0 0 0 127 0"/><feOffset dy="4"/><feGaussianBlur stdDeviation="2"/><feColorMatrix values="0 0 0 0 0 0 0 0 0 0 0 0 0 0 0 0 0 0 0.25 0"/><feBlend in2="BackgroundImageFix" result="effect1_dropShadow"/><feBlend in="SourceGraphic" in2="effect1_dropShadow" result="shape"/></filter></defs></svg>