<svg width="1024" height="1024" viewBox="0 0 1024 1024" fill="none" xmlns="http://www.w3.org/2000/svg">
<rect width="1024" height="1024" fill="black"/>
<path d="M995 847.628C995 862.977 990.821 890.419 982.462 929.953C974.104 969.023 966.529 994.372 959.738 1006C951.38 1004.14 940.41 1000.42 926.827 994.837H564.023C552.008 980.884 546 966.233 546 950.884C563.761 950.884 576.821 948.093 585.18 942.512C593.538 936.93 597.717 927.628 597.717 914.605V587.395C597.717 574.837 593.538 565.767 585.18 560.186C577.344 554.605 564.545 551.814 546.784 551.814C546.784 536.465 552.791 521.814 564.806 507.86H868.841C877.722 504.14 887.909 501.349 899.401 499.488C911.416 497.163 922.387 496 932.312 496C940.148 509.488 948.507 528.093 957.387 551.814C966.791 575.535 971.492 592.744 971.492 603.442C965.223 608.558 954.514 613.907 939.365 619.488C924.215 625.07 911.155 628.791 900.185 630.651C893.394 613.442 882.685 598.558 868.058 586C853.43 573.442 836.453 567.163 817.124 567.163H728.578V714.372H784.997C818.952 714.372 835.93 697.395 835.93 663.442C859.438 663.442 880.595 668.326 899.401 678.093V807.86C891.043 812.512 881.379 816.233 870.408 819.023C859.438 821.349 848.206 822.512 836.714 822.512C836.714 804.837 832.012 791.581 822.609 782.744C813.206 773.907 800.93 769.488 785.78 769.488H728.578V933.442H823.393C845.333 933.442 864.401 925.302 880.595 909.023C896.789 892.279 906.976 871.814 911.155 847.628H995Z" fill="#991B1B" stroke="white" stroke-width="6"/>
<path d="M223.637 481C211.495 481 196.714 480.35 179.293 479.049C122.806 475.579 73.1821 473.845 30.4211 473.845C18.807 461.702 13 447.825 13 432.214C30.4211 432.214 42.8271 429.828 50.2179 425.058C58.1366 419.854 62.0959 411.181 62.0959 399.039V93.3107C62.0959 81.6019 58.1366 73.3625 50.2179 68.5922C42.8271 63.3883 30.4211 60.7864 13 60.7864C13 44.3074 18.807 30.6473 30.4211 19.8058C70.5425 19.8058 106.705 18.9385 138.907 17.2039C171.11 15.4693 190.115 14.3851 195.922 13.9515C213.871 12.6505 226.805 12 234.724 12C293.322 12 342.418 21.9741 382.011 41.9223C422.133 61.8706 451.696 88.9741 470.701 123.233C490.234 157.058 500 195.003 500 237.068C500 283.469 489.97 325.1 469.909 361.961C450.376 398.388 420.021 427.443 378.844 449.126C337.667 470.375 285.931 481 223.637 481ZM217.302 427.01C262.703 427.01 297.545 412.916 321.829 384.728C346.641 356.107 359.047 310.139 359.047 246.825C359.047 185.68 345.849 139.929 319.454 109.573C293.586 79.2168 257.424 64.0388 210.967 64.0388C201.993 64.0388 195.658 64.4725 191.963 65.3398V425.709C197.242 426.576 205.688 427.01 217.302 427.01Z" fill="#991B1B" stroke="white" stroke-width="6"/>
<path d="M744.61 480.943C732.642 480.943 718.073 480.293 700.902 478.992C645.228 475.523 596.317 473.789 554.171 473.789C542.724 461.648 537 447.772 537 432.163C554.171 432.163 566.398 429.778 573.683 425.008C581.488 419.805 585.39 411.133 585.39 398.992V93.3008C585.39 81.5935 581.488 73.355 573.683 68.5854C566.398 63.3821 554.171 60.7805 537 60.7805C537 44.3035 542.724 30.645 554.171 19.8049C593.715 19.8049 629.358 18.9377 661.098 17.2033C692.837 15.4688 711.569 14.3848 717.293 13.9512C734.984 12.6504 747.732 12 755.537 12C813.293 12 861.683 21.9729 900.707 41.9187C940.252 61.8645 969.39 88.9648 988.122 123.219C1007.37 157.041 1017 194.981 1017 237.041C1017 283.436 1007.11 325.062 987.341 361.919C968.089 398.341 938.171 427.393 897.585 449.073C857 470.32 806.008 480.943 744.61 480.943ZM738.366 426.959C783.114 426.959 817.455 412.867 841.39 384.683C865.846 356.065 878.073 310.103 878.073 246.797C878.073 185.659 865.065 139.913 839.049 109.561C813.553 79.2087 777.911 64.0325 732.122 64.0325C723.276 64.0325 717.032 64.4661 713.39 65.3333V425.659C718.593 426.526 726.919 426.959 738.366 426.959Z" fill="#991B1B" stroke="white" stroke-width="6"/>
<path d="M486.991 508C491.139 513.57 494.344 520.301 496.606 528.192C498.869 536.083 500 543.974 500 551.865C487.179 551.865 477.564 554.65 471.153 560.221C465.12 565.791 462.103 574.842 462.103 587.375V914.625C462.103 927.622 464.932 936.673 470.588 941.779C476.621 946.885 486.425 949.438 500 949.438C500 957.794 498.869 965.917 496.606 973.808C494.344 981.699 491.139 988.43 486.991 994H346.717C342.946 988.43 339.929 981.699 337.667 973.808C335.404 965.917 334.273 957.794 334.273 949.438C347.471 949.438 357.275 946.885 363.685 941.779C370.096 936.209 373.301 927.158 373.301 914.625V626.367L277.145 925.069C272.243 939.458 265.456 949.438 256.783 955.009C248.11 960.115 236.798 962.668 222.846 962.668L110.853 626.367V914.625C110.853 927.158 114.435 936.209 121.599 941.779C129.141 946.885 140.453 949.438 155.537 949.438C155.537 957.794 154.405 965.917 152.143 973.808C149.88 981.699 146.864 988.43 143.093 994H25.4437C21.6729 988.43 18.6562 981.699 16.3937 973.808C14.1312 965.917 13 957.794 13 949.438C26.952 949.438 37.1332 946.885 43.5436 941.779C49.9539 936.209 53.1591 927.158 53.1591 914.625V587.375C53.1591 574.842 49.7654 565.791 42.9779 560.221C36.1905 554.65 26.1978 551.865 13 551.865C13 543.974 14.1312 536.083 16.3937 528.192C18.6562 520.301 21.8614 513.57 26.0093 508H114.812C132.535 508 146.675 511.249 157.233 517.748C167.792 523.782 176.276 536.083 182.686 554.65L242.642 736.378L265.267 822.716L286.761 736.378L358.029 508H486.991Z" fill="#991B1B" stroke="white" stroke-width="6"/>
<g filter="url(#filter0_d)">
<path d="M372.21 326.052C370.357 312.337 371.842 298.405 376.552 285.312C381.261 272.219 389.071 260.31 399.39 250.488C411.366 239.086 425.925 230.39 441.975 225.052C458.025 219.714 475.148 217.872 492.06 219.666C559.307 223.091 591.525 266.507 591.525 313.348C589.7 340.249 579.559 366.058 562.353 387.586L559.424 384.714C556.144 381.62 552.278 378.417 547.709 374.992C535.793 365.567 525.097 354.851 515.843 343.065C534.236 311.469 523.692 266.728 484.796 266.728C478.894 267.058 473.127 268.533 467.857 271.06C462.586 273.588 457.925 277.113 454.165 281.416C450.405 285.718 447.626 290.706 446.002 296.067C444.379 301.429 443.945 307.048 444.729 312.574C438.595 327.201 436.148 342.971 437.583 358.642C426.845 353.316 418.125 344.978 412.628 334.779L398.335 302.521L386.62 335.663C383.959 343.888 383.279 352.568 384.628 361.072V361.072C377.42 350.517 373.075 338.453 371.975 325.942L372.21 326.052ZM328.042 442.16C347.255 424.042 386.62 412.774 389.08 402.942C391.54 393.11 371.39 376.759 363.774 373.666C377.849 372.61 392.01 373.92 405.599 377.533C401.892 371.943 399.485 365.675 398.535 359.143C397.586 352.612 398.117 345.964 400.093 339.64C415.323 374.108 469.683 379.632 483.156 408.134C481.052 400.931 477.438 394.2 472.529 388.336C467.619 382.473 461.512 377.598 454.57 373.998C446.838 355.217 452.578 320.749 462.068 311.138C458.671 360.851 533.885 389.243 549.466 425.257C540.211 394.325 505.299 374.771 488.662 356.322C486.433 349.681 485.698 342.674 486.504 335.749C487.311 328.825 489.643 322.135 493.349 316.109C491.591 349.251 529.667 375.323 549.935 393.441C573.952 415.536 580.747 434.648 577.466 450.445C580.963 451.038 584.099 452.838 586.265 455.493C588.431 458.148 589.471 461.468 589.182 464.807C593.007 463.553 596.52 461.572 599.502 458.988C602.484 456.404 604.873 453.271 606.521 449.783C608.151 461.119 606.302 472.657 601.195 483.034C596.087 493.41 587.934 502.19 577.701 508.334C578.954 504.858 579.309 501.151 578.739 497.52C578.168 493.888 576.688 490.438 574.42 487.454C566.688 478.616 544.663 478.506 537.282 479.058C537.282 479.058 546.303 466.243 542.788 459.836C538.219 451.771 495.223 455.306 475.892 461.935C485.188 461.531 494.49 462.576 503.424 465.028C500.378 469.226 492.529 487.123 498.152 492.536C503.776 497.949 509.868 488.89 509.868 488.89C509.868 488.89 503.19 508.444 507.993 512.973C512.797 517.503 523.106 514.299 523.106 514.299C516.663 529.655 491.708 540.15 474.135 540.15C482.475 536.317 488.964 529.645 492.294 521.48C485.576 523.892 478.374 524.873 471.206 524.352C476.442 520.923 480.505 516.129 482.898 510.557C485.29 504.985 485.909 498.876 484.679 492.978C479.407 470.883 446.135 467.569 429.382 478.506C435.658 463.363 447.983 451.146 463.708 444.48C455.416 441.831 446.915 439.799 438.285 438.404C453.592 429.483 471.255 424.812 489.248 424.926C468.395 419.844 430.67 426.141 412.863 445.585C421.465 446.178 429.982 447.585 438.285 449.783C413.55 456.175 390.86 468.201 372.21 484.803C374.67 471.767 378.536 460.719 375.373 452.876C370.687 441.828 356.394 437.189 328.511 442.712L328.042 442.16ZM545.132 445.143C543.032 439.666 539.706 434.68 535.379 430.524C531.053 426.368 525.828 423.14 520.06 421.059C523.926 433.653 528.964 445.143 545.132 445.143ZM838.841 620.133C838.841 583.677 801.351 555.395 758.589 559.151C766.395 560.703 773.449 564.62 778.674 570.304C783.899 575.989 787.008 583.13 787.527 590.636C787.527 619.139 749.803 627.977 728.949 623.779C751.091 609.307 748.162 567.658 721.568 552.854C730.589 576.164 703.526 599.364 677.283 579.037C662.639 567.989 628.898 541.144 613.785 529.655C598.672 518.166 580.981 524.905 574.069 519.933C567.157 514.962 571.257 497.839 560.362 492.315C551.341 487.344 542.32 490.105 531.776 486.791C527.149 485.846 523.039 483.36 520.199 479.788C517.359 476.217 515.978 471.801 516.311 467.348C514.022 471.559 513.08 476.308 513.6 481.015C514.12 485.722 516.079 490.185 519.24 493.862C526.504 501.705 538.454 506.566 543.491 515.183C549.935 526.23 539.039 541.918 567.625 563.129C581.333 573.182 602.772 589.753 616.362 601.242C639.793 620.575 627.258 644.548 630.304 665.538C631.806 675.208 636.229 684.267 643.043 691.633C649.856 698.998 658.774 704.359 668.731 707.076C661.713 700.029 657.806 690.726 657.806 681.059C657.806 671.392 661.713 662.089 668.731 655.043C669.716 669.125 675.269 682.581 684.636 693.588C694.004 704.595 706.733 712.62 721.099 716.577C759.058 726.077 799.477 705.529 807.912 691.499C798.681 693.82 788.997 694.028 779.663 692.106C770.33 690.185 761.619 686.189 754.254 680.452C798.774 686.417 838.255 657.142 838.255 619.802L838.841 620.133ZM607.224 610.301C595.508 600.469 577.584 586.549 564.228 576.496C548.998 601.021 516.546 633.058 483.742 633.058C423.29 633.058 392.946 552.413 460.311 486.349C457.351 485.485 454.271 485.038 451.173 485.024C445.806 484.897 440.516 486.24 435.942 488.89L410.285 506.566L416.377 474.639C416.937 472.752 417.642 470.906 418.486 469.115C405.207 475.11 392.995 483.011 382.285 492.536L356.042 519.602L358.854 481.488L360.611 472.982C362.269 467.642 362.982 462.08 362.72 456.521C362.283 455.685 361.589 454.992 360.728 454.533C348.31 463.592 313.866 492.204 310 534.295C313.021 529.864 317.017 526.097 321.716 523.248C325.582 521.922 328.862 523.248 325.23 534.295C323.824 538.382 290.786 622.674 355.808 681.114C355.808 681.114 348.661 663.991 352.996 659.02C355.105 656.479 357.8 656.258 361.548 660.787C365.297 665.317 367.289 667.637 370.452 670.951C376.172 676.849 382.446 682.247 389.197 687.08C411.414 701.909 437.896 710.002 465.114 710.28C545.6 710.28 588.128 657.915 611.793 614.057C610.739 612.952 609.567 611.737 608.278 610.632L607.224 610.301ZM746.288 427.688C686.421 430.45 634.756 478.506 608.396 512.421C613.568 513.957 618.408 516.352 622.689 519.491L645.182 536.836C657.471 510.975 673.563 486.876 692.982 465.249C702.906 454.37 716.638 447.206 731.684 445.058C746.731 442.909 762.096 445.918 774.991 453.539C788.23 442.491 833.569 431.444 857 438.183C836.386 417.131 807.906 404.456 777.568 402.831C749.334 402.831 733.401 415.867 729.3 410.012C725.2 404.157 748.397 391.784 748.397 391.784C715.124 393.11 690.873 430.118 680.798 424.926C674.823 422.164 689.819 404.378 689.819 404.378C660.912 421.406 639.235 447.435 628.546 477.953C656.547 445.585 710.555 422.716 746.288 427.246V427.688ZM756.363 570.862C761.185 571.946 765.518 574.445 768.739 577.998C771.96 581.551 773.903 585.976 774.288 590.636C774.293 593.73 773.414 596.768 771.744 599.431C770.074 602.094 767.675 604.284 764.798 605.771C761.766 607.512 758.494 608.85 755.075 609.748C756.989 603.544 757.858 597.095 757.652 590.636C757.652 578.595 756.363 571.966 756.363 571.966" fill="white"/>
<path d="M756.363 570.862C761.185 571.946 765.518 574.445 768.739 577.998C771.96 581.551 773.903 585.976 774.288 590.636C774.293 593.73 773.414 596.768 771.744 599.431C770.074 602.094 767.675 604.284 764.798 605.771C761.766 607.512 758.494 608.85 755.075 609.748C756.989 603.544 757.858 597.095 757.652 590.636C757.652 578.595 756.363 571.966 756.363 571.966M372.21 326.052C370.357 312.337 371.842 298.405 376.552 285.312C381.261 272.219 389.071 260.31 399.39 250.488C411.366 239.086 425.925 230.39 441.975 225.052C458.025 219.714 475.148 217.872 492.06 219.666C559.307 223.091 591.525 266.507 591.525 313.348C589.7 340.249 579.559 366.058 562.353 387.586L559.424 384.714C556.144 381.62 552.278 378.417 547.709 374.992C535.793 365.567 525.097 354.851 515.843 343.065C534.236 311.469 523.692 266.728 484.796 266.728C478.894 267.058 473.127 268.533 467.857 271.06C462.586 273.588 457.925 277.113 454.165 281.416C450.405 285.718 447.626 290.706 446.002 296.067C444.379 301.429 443.945 307.048 444.729 312.574C438.595 327.201 436.148 342.971 437.583 358.642C426.845 353.316 418.125 344.978 412.628 334.779L398.335 302.521L386.62 335.663C383.959 343.888 383.279 352.568 384.628 361.072V361.072C377.42 350.517 373.075 338.453 371.975 325.942L372.21 326.052ZM328.042 442.16C347.255 424.042 386.62 412.774 389.08 402.942C391.54 393.11 371.39 376.759 363.774 373.666C377.849 372.61 392.01 373.92 405.599 377.533C401.892 371.943 399.485 365.675 398.535 359.143C397.586 352.612 398.117 345.964 400.093 339.64C415.323 374.108 469.683 379.632 483.156 408.134C481.052 400.931 477.438 394.2 472.529 388.336C467.619 382.473 461.512 377.598 454.57 373.998C446.838 355.217 452.578 320.749 462.068 311.138C458.671 360.851 533.885 389.243 549.466 425.257C540.211 394.325 505.299 374.771 488.662 356.322C486.433 349.681 485.698 342.674 486.504 335.749C487.311 328.825 489.643 322.135 493.349 316.109C491.591 349.251 529.667 375.323 549.935 393.441C573.952 415.536 580.747 434.648 577.466 450.445C580.963 451.038 584.099 452.838 586.265 455.493C588.431 458.148 589.471 461.468 589.182 464.807C593.007 463.553 596.52 461.572 599.502 458.988C602.484 456.404 604.873 453.271 606.521 449.783C608.151 461.119 606.302 472.657 601.195 483.034C596.087 493.41 587.934 502.19 577.701 508.334C578.954 504.858 579.309 501.151 578.739 497.52C578.168 493.888 576.688 490.438 574.42 487.454C566.688 478.616 544.663 478.506 537.282 479.058C537.282 479.058 546.303 466.243 542.788 459.836C538.219 451.771 495.223 455.306 475.892 461.935C485.188 461.531 494.49 462.576 503.424 465.028C500.378 469.226 492.529 487.123 498.152 492.536C503.776 497.949 509.868 488.89 509.868 488.89C509.868 488.89 503.19 508.444 507.993 512.973C512.797 517.503 523.106 514.299 523.106 514.299C516.663 529.655 491.708 540.15 474.135 540.15C482.475 536.317 488.964 529.645 492.294 521.48C485.576 523.892 478.374 524.873 471.206 524.352C476.442 520.923 480.505 516.129 482.898 510.557C485.29 504.985 485.909 498.876 484.679 492.978C479.407 470.883 446.135 467.569 429.382 478.506C435.658 463.363 447.983 451.146 463.708 444.48C455.416 441.831 446.915 439.799 438.285 438.404C453.592 429.483 471.255 424.812 489.248 424.926C468.395 419.844 430.67 426.141 412.863 445.585C421.465 446.178 429.982 447.585 438.285 449.783C413.55 456.175 390.86 468.201 372.21 484.803C374.67 471.767 378.536 460.719 375.373 452.876C370.687 441.828 356.394 437.189 328.511 442.712L328.042 442.16ZM545.132 445.143C543.032 439.666 539.706 434.68 535.379 430.524C531.053 426.368 525.828 423.14 520.06 421.059C523.926 433.653 528.964 445.143 545.132 445.143ZM838.841 620.133C838.841 583.677 801.351 555.395 758.589 559.151C766.395 560.703 773.449 564.62 778.674 570.304C783.899 575.989 787.008 583.13 787.527 590.636C787.527 619.139 749.803 627.977 728.949 623.779C751.091 609.307 748.162 567.658 721.568 552.854C730.589 576.164 703.526 599.364 677.283 579.037C662.639 567.989 628.898 541.144 613.785 529.655C598.672 518.166 580.981 524.905 574.069 519.933C567.157 514.962 571.257 497.839 560.362 492.315C551.341 487.344 542.32 490.105 531.776 486.791C527.149 485.846 523.039 483.36 520.199 479.788C517.359 476.217 515.978 471.801 516.311 467.348C514.022 471.559 513.08 476.308 513.6 481.015C514.12 485.722 516.079 490.185 519.24 493.862C526.504 501.705 538.454 506.566 543.491 515.183C549.935 526.23 539.039 541.918 567.625 563.129C581.333 573.182 602.772 589.753 616.362 601.242C639.793 620.575 627.258 644.548 630.304 665.538C631.806 675.208 636.229 684.267 643.043 691.633C649.856 698.998 658.774 704.359 668.731 707.076C661.713 700.029 657.806 690.726 657.806 681.059C657.806 671.392 661.713 662.089 668.731 655.043C669.716 669.125 675.269 682.581 684.636 693.588C694.004 704.595 706.733 712.62 721.099 716.577C759.058 726.077 799.477 705.529 807.912 691.499C798.681 693.82 788.997 694.028 779.663 692.106C770.33 690.185 761.619 686.189 754.254 680.452C798.774 686.417 838.255 657.142 838.255 619.802L838.841 620.133ZM607.224 610.301C595.508 600.469 577.584 586.549 564.228 576.496C548.998 601.021 516.546 633.058 483.742 633.058C423.29 633.058 392.946 552.413 460.311 486.349C457.351 485.485 454.271 485.038 451.173 485.024C445.806 484.897 440.516 486.24 435.942 488.89L410.285 506.566L416.377 474.639C416.937 472.752 417.642 470.906 418.486 469.115C405.207 475.11 392.995 483.011 382.285 492.536L356.042 519.602L358.854 481.488L360.611 472.982C362.269 467.642 362.982 462.08 362.72 456.521C362.283 455.685 361.589 454.992 360.728 454.533C348.31 463.592 313.866 492.204 310 534.295C313.021 529.864 317.017 526.097 321.716 523.248C325.582 521.922 328.862 523.248 325.23 534.295C323.824 538.382 290.786 622.674 355.808 681.114C355.808 681.114 348.661 663.991 352.996 659.02C355.105 656.479 357.8 656.258 361.548 660.787C365.297 665.317 367.289 667.637 370.452 670.951C376.172 676.849 382.446 682.247 389.197 687.08C411.414 701.909 437.896 710.002 465.114 710.28C545.6 710.28 588.128 657.915 611.793 614.057C610.739 612.952 609.567 611.737 608.278 610.632L607.224 610.301ZM746.288 427.688C686.421 430.45 634.756 478.506 608.396 512.421C613.568 513.957 618.408 516.352 622.689 519.491L645.182 536.836C657.471 510.975 673.563 486.876 692.982 465.249C702.906 454.37 716.638 447.206 731.684 445.058C746.731 442.909 762.096 445.918 774.991 453.539C788.23 442.491 833.569 431.444 857 438.183C836.386 417.131 807.906 404.456 777.568 402.831C749.334 402.831 733.401 415.867 729.3 410.012C725.2 404.157 748.397 391.784 748.397 391.784C715.124 393.11 690.873 430.118 680.798 424.926C674.823 422.164 689.819 404.378 689.819 404.378C660.912 421.406 639.235 447.435 628.546 477.953C656.547 445.585 710.555 422.716 746.288 427.246V427.688Z" stroke="black" stroke-width="6"/>
</g>
<defs>
<filter id="filter0_d" x="301.953" y="216" width="569.147" height="514" filterUnits="userSpaceOnUse" color-interpolation-filters="sRGB">
<feFlood flood-opacity="0" result="BackgroundImageFix"/>
<feColorMatrix in="SourceAlpha" type="matrix" values="0 0 0 0 0 0 0 0 0 0 0 0 0 0 0 0 0 0 127 0"/>
<feOffset dy="4"/>
<feGaussianBlur stdDeviation="2"/>
<feColorMatrix type="matrix" values="0 0 0 0 0 0 0 0 0 0 0 0 0 0 0 0 0 0 0.25 0"/>
<feBlend mode="normal" in2="BackgroundImageFix" result="effect1_dropShadow"/>
<feBlend mode="normal" in="SourceGraphic" in2="effect1_dropShadow" result="shape"/>
</filter>
</defs>
</svg>
